<?xml version="1.0" encoding="UTF-8"?>
<svg version="1.1" xmlns="http://www.w3.org/2000/svg" width="512" height="512">
<path d="M0 0 C5.66996176 0.18820181 11.33842145 0.10853811 17.01055264 0.07186532 C26.50688144 0.04980938 35.98299539 0.22355188 45.47416043 0.52772164 C56.34201925 0.87392728 67.17899857 0.91590076 78.0510003 0.79516023 C88.6685329 0.68313946 99.27540693 0.77271007 109.89168859 0.9546721 C114.33918512 1.02855974 118.77941799 1.03911446 123.2272408 0.99348664 C147.03074872 0.83660239 165.49937947 4.00551736 184.96439481 18.60828805 C199.47586942 41.22230172 199.47586942 41.22230172 199.47586942 128.22230172 C142.05586942 128.22230172 84.63586942 128.22230172 25.47586942 128.22230172 C25.47586942 193.56230172 25.47586942 258.90230172 25.47586942 326.22230172 C42.63586942 326.22230172 59.79586942 326.22230172 77.47586942 326.22230172 C77.47586942 313.68230172 77.47586942 301.14230172 77.47586942 288.22230172 C72.85586942 288.22230172 68.23586942 288.22230172 63.47586942 288.22230172 C56.33469948 285.49762046 50.81746981 281.18201761 45.10086942 276.15980172 C44.3071594 275.47131143 43.51344937 274.78282113 42.69568753 274.07346749 C30.34441388 262.59960758 27.10162489 250.71862665 26.31176114 234.47062898 C25.49717099 211.72549218 26.73461976 188.89983633 28.47586942 166.22230172 C66.41648723 158.16371218 105.04887209 157.27881462 139.11258817 178.22230172 C165.98777675 195.84048394 192.4920812 221.4928955 200.09730935 253.86771989 C212.76428772 316.23134824 204.73567593 385.32588343 199.47586942 448.22230172 C173.45003182 450.24312921 147.43638146 451.72250483 121.34695268 452.62633634 C109.2163582 453.05811487 97.13585949 453.64276444 85.03714871 454.63465524 C34.47278742 458.68204125 -11.63226246 457.19785408 -51.98334777 422.89957702 C-88.97271362 390.08988578 -102.8088616 354.94151745 -105.87254181 306.79891453 C-107.41914309 279.80424782 -106.6700905 252.78992534 -105.57799005 225.79463673 C-105.05152691 212.68461813 -104.87487694 199.60955778 -104.96529269 186.48963571 C-105.08847963 168.51759079 -104.92007315 150.57011425 -104.52310548 132.60210711 C-104.40710996 126.98864376 -104.38988623 121.3803364 -104.40868068 115.76590562 C-104.44583415 81.41878984 -100.78306805 54.25761768 -75.79678002 28.91976044 C-53.3866925 6.78788274 -31.64425925 -1.31221611 0 0 Z " fill="#E8001A" transform="translate(204.52413058280945,28.777698278427124)"/>
<path d="M0 0 C2.31 1.98 4.62 3.96 7 6 C8.71214457 7.31025532 10.42433763 8.62046694 12.14183033 9.92370403 C24.14074871 19.2202031 36.23867825 29.55512452 38.56484985 45.25479126 C39.79070353 56.09833535 39.36964655 67.04254539 38.9404242 77.9223845 C38.75638993 83.39308553 38.74189472 88.86449578 38.70768738 94.33781433 C38.61831904 104.654357 38.38149908 114.9617536 38.08855218 125.274306 C37.76190778 137.03403129 37.60435235 148.79424577 37.45938456 160.55739367 C37.15800956 184.71113531 36.6272932 208.85237306 36 233 C24.12 233 12.24 233 0 233 C0 156.11 0 79.22 0 0 Z " fill="#104B9C" transform="translate(194,122)"/>
<path d="M0 0 C26.90378086 -0.82260314 53.80564376 -1.43716691 80.71952534 -1.81342602 C93.22089078 -1.99289371 105.71438705 -2.23683269 118.21069336 -2.64038086 C129.12083644 -2.99253426 140.02528052 -3.21577023 150.94094914 -3.29309732 C156.70886327 -3.33823129 162.46049967 -3.4417256 168.22310829 -3.70055199 C189.86665028 -4.63604825 207.69699887 -4.95297379 224.4051699 10.31759924 C232.20289218 17.87479267 239.77276061 26.07668945 246 35 C246 35.33 246 35.66 246 36 C219.09621914 36.82260314 192.19435624 37.43716691 165.28047466 37.81342602 C152.77910922 37.99289371 140.28561295 38.23683269 127.78930664 38.64038086 C116.87916356 38.99253426 105.97471948 39.21577023 95.05905086 39.29309732 C89.29113673 39.33823129 83.53950033 39.4417256 77.77689171 39.70055199 C56.13334972 40.63604825 38.30300113 40.95297379 21.5948301 25.68240076 C13.79710782 18.12520733 6.22723939 9.92331055 0 1 C0 0.67 0 0.34 0 0 Z " fill="#FCB631" transform="translate(158,441)"/>
<path d="M0 0 C0.42493943 0.37137221 0.84987885 0.74274441 1.28769523 1.12537032 C4.26923815 3.70917085 7.2638781 6.23852539 10.41184521 8.61793041 C22.9182645 18.13831444 36.12498402 28.85187644 38.56484985 45.17715454 C39.78937103 55.91183892 39.36987192 66.74726735 38.9404242 77.51852632 C38.7563542 82.93315989 38.74189215 88.34851364 38.70768738 93.76579285 C38.61832859 103.97613447 38.38152442 114.17723184 38.08855218 124.38354081 C37.7618754 136.02233528 37.60434475 147.6616249 37.45938456 159.30387843 C37.1580465 183.20766833 36.64958968 207.10331169 36 231 C35.36259086 230.44294169 35.36259086 230.44294169 34.71230477 229.87462968 C31.73076185 227.29082915 28.7361219 224.76147461 25.58815479 222.38206959 C13.0817355 212.86168556 -0.12498402 202.14812356 -2.56484985 185.82284546 C-3.78937103 175.08816108 -3.36987192 164.25273265 -2.9404242 153.48147368 C-2.7563542 148.06684011 -2.74189215 142.65148636 -2.70768738 137.23420715 C-2.61832859 127.02386553 -2.38152442 116.82276816 -2.08855218 106.61645919 C-1.7618754 94.97766472 -1.60434475 83.3383751 -1.45938456 71.69612157 C-1.1580465 47.79233167 -0.64958968 23.89668831 0 0 Z " fill="#114A9B" transform="translate(368,245)"/>
<path d="M0 0 C22.09651385 -0.80023021 44.19058934 -1.39661698 66.29873466 -1.76161385 C76.56889725 -1.93573895 86.82989346 -2.17311106 97.09423828 -2.56494141 C171.86733568 -5.3654332 171.86733568 -5.3654332 189.71698952 9.89849281 C197.16215562 17.01367809 202.83589263 25.14904904 208 34 C208.66 34.66 209.32 35.32 210 36 C187.79054125 36.82394782 165.58365563 37.43777571 143.36192608 37.81342602 C133.03883035 37.99263825 122.7254047 38.23690922 112.40844727 38.64038086 C37.27715279 41.52327898 37.27715279 41.52327898 18.87129307 25.76555729 C11.26913256 18.51086862 5.0132507 10.2209874 0 1 C0 0.67 0 0.34 0 0 Z " fill="#FCB530" transform="translate(194,121)"/>
<path d="M0 0 C14.18900305 7.04291836 29.19247292 16.67836 35.3553772 31.98092651 C43.76342451 58.31642895 37.91725642 92.84756236 36 120 C21.81099695 112.95708164 6.80752708 103.32164 0.6446228 88.01907349 C-7.76342451 61.68357105 -1.91725642 27.15243764 0 0 Z " fill="#124A9B" transform="translate(368,36)"/>
<path d="M0 0 C16.5 0 33 0 50 0 C50 11.88 50 23.76 50 36 C33.29085129 36 33.29085129 36 27.96424866 30.68934631 C27.27608566 29.92690109 26.58792267 29.16445587 25.87890625 28.37890625 C25.12326889 27.60441635 24.36763153 26.82992645 23.58909607 26.03196716 C21.20914983 23.57533574 18.88710862 21.07143669 16.5625 18.5625 C14.94815172 16.88140696 13.33033891 15.20363365 11.70898438 13.52929688 C0 1.35974661 0 1.35974661 0 0 Z " fill="#FCB42F" transform="translate(233,281)"/>
</svg>
